<svg width="48" height="48" fill="none" xmlns="http://www.w3.org/2000/svg"><g clip-path="url(#a)"><path d="M24 48c13.255 0 24-10.745 24-24S37.255 0 24 0 0 10.745 0 24s10.745 24 24 24Z" fill="#149585"/><path d="M12 18.197v10.5c.411 2.25 5.657 4.087 12 4.087s11.53-1.837 11.942-4.087H36v-10.5H12Z" fill="#2D424D"/><path d="M34.875 18.197v10.5c-.399 2.25-5.384 3.948-11.459 4.055.194.003.388.019.584.019 6.343 0 11.588-1.824 12-4.074v-10.5h-1.125Z" fill="#253740"/><path d="M42 18.572v.472l-16.905-2.148a6.468 6.468 0 0 0-2.174 0l-16.546 2.09v-.04H5.25v.52c0 .072.222.145.415.211l14.002 4.208c.608.208 1.624.253 2.247.1L42.3 19.578c.214-.053.45-.114.45-.177V18.947l-.75-.375Z" fill="#1E2C33"/><path d="M42.75 18.65c0-.06-.238-.116-.458-.16l-17.13-2.179c-.631-.123-1.67-.123-2.3 0L5.71 18.491c-.215.042-.461.102-.461.17v.286c0 .072.222.08.415.146l14.002 4.208c.608.208 1.624.253 2.247.1 0 0 20.836-4.391 20.836-4.453v-.298Z" fill="#2D424D"/><path d="M29.438 33.314a.566.566 0 0 1-.563-.584V22.349l-6.564-2.203c-.306-.102-.449-.433-.347-.739a.595.595 0 0 1 .75-.369l6.947 2.336c.239.08.714.322.714.574v10.875c0 .322-.615.492-.938.492Z" fill="#FFD464"/><path d="M31.125 33.947V32.73c0-.806-.694-1.46-1.5-1.46s-1.5.654-1.5 1.46v1.217h3Z" fill="#E16B5A"/><path d="M31.125 33.947h-3v3.375h3v-3.375Z" fill="#FFD464"/><path d="M28.875 33.947H28.5v3.375h.375v-3.375ZM29.625 33.947h-.375v3.375h.375v-3.375ZM30.375 33.947H30v3.375h.375v-3.375Z" fill="#FFE399"/></g><defs><clipPath id="a"><path fill="#fff" d="M0 0h48v48H0z"/></clipPath></defs></svg>